# xmcd
#
# Track frame offsets:
#	182
#	14760
#	28822
#	46312
#	60775
#	73757
#	88650
#	106342
#	125454
#	135002
#	149215
#	165062
#	180195
#	197205
#	211135
#	230820
#	247915
#	264967
#	279940
#
# Disc length: 3942 seconds
#
# Revision: 1
# Processed by: cddbd v1.5.2PL0 Copyright (c) Steve Scherf et al.
# Submitted via: dBpowerAMP V4.0
#
DISCID=010f6413
DTITLE=Various / Saturday Morning Cartoons' Greatest Hits
DYEAR=
DGENRE=rock
TTITLE0=Liz Phair with Material Issue / The Tra La La Song(One Banana, Two Banana)
TTITLE1=Sponge / Go Speed Racer Go
TTITLE2=Mary Lou Lord with Semisonic / Sugar Sugar
TTITLE3=Matthew Sweet / Scooby-Doo, Where Are You?
TTITLE4=Juliana Hatfield and Tanya Donelly / Josie and the Pussycats
TTITLE5=Collective Soul / The Bugaloos
TTITLE6=Butthole Surfers / Underdog
TTITLE7=Helmet / Gigantor
TTITLE8=Ramones / Spider-Man
TTITLE9=Reverend Horton Heat / Johnny Quest-Stop That Pigeon
TTITLE10=Frente! / Open Up Your Heart And Let The Sun Shine In
TTITLE11=Violent Femmes / Eep Op Ork Ah-ah (Means I Love You)
TTITLE12=Dig / Fat Albert Theme
TTITLE13=face to face / I'm Popeye the Sailor Man
TTITLE14=Tripping Daisy / Friends-Sigmund and the Seamonsters
TTITLE15=Toadies / Goolie Get-Together
TTITLE16=Sublime / Hong Kong Phooey
TTITLE17=The Murmurs / H.R. Pufnstuf
TTITLE18=Wax / Happy, Happy, Joy, Joy
EXTD=
EXTT0=
EXTT1=
EXTT2=
EXTT3=
EXTT4=
EXTT5=
EXTT6=
EXTT7=
EXTT8=
EXTT9=
EXTT10=
EXTT11=
EXTT12=
EXTT13=
EXTT14=
EXTT15=
EXTT16=
EXTT17=
EXTT18=
PLAYORDER=
.
